<?xml version="1.0" standalone="no"?>
<!DOCTYPE svg PUBLIC "-//W3C//DTD SVG 20010904//EN"
 "http://www.w3.org/TR/2001/REC-SVG-20010904/DTD/svg10.dtd">
<svg version="1.0" xmlns="http://www.w3.org/2000/svg"
 width="151.000000pt" height="184.000000pt" viewBox="0 0 151.000000 184.000000"
 preserveAspectRatio="xMidYMid meet">

<g transform="translate(0.000000,184.000000) scale(0.100000,-0.100000)"
fill="#000000" stroke="none">
<path d="M0 1138 c0 -386 2 -699 4 -697 2 2 20 43 41 91 52 122 128 188 217
188 15 0 16 4 7 26 -17 47 -13 158 9 206 71 161 294 224 428 122 25 -20 44
-30 41 -22 -3 7 -11 39 -18 70 -11 51 -16 58 -48 72 -20 8 -43 16 -51 19 -8 2
9 12 38 22 45 17 50 20 32 27 -12 4 -34 5 -48 1 l-27 -6 19 22 c11 12 51 37
90 57 62 31 76 34 121 29 l51 -7 49 83 c91 155 229 303 314 339 29 12 34 11
52 -7 47 -46 118 -281 139 -459 11 -91 3 -230 -20 -328 -5 -22 -5 -47 0 -55 9
-19 58 -241 63 -291 2 -19 5 243 5 583 l2 617 -755 0 -755 0 0 -702z m434 590
c41 -62 89 -179 106 -260 10 -45 10 -63 1 -87 -13 -30 -24 -36 -125 -66 -83
-24 -164 -104 -197 -194 -18 -50 -24 -60 -30 -45 -13 32 -10 178 5 257 28 144
102 355 146 417 31 44 54 38 94 -22z"/>
<path d="M502 953 c-20 -8 -42 -59 -42 -97 0 -41 20 -56 74 -56 44 0 61 26 53
84 -8 55 -44 86 -85 69z m36 -40 c-3 -31 -34 -44 -44 -19 -9 24 3 46 26 46 17
0 21 -5 18 -27z"/>
<path d="M1001 905 c-51 -66 -31 -135 39 -135 63 0 88 55 55 119 -24 48 -63
54 -94 16z m57 -24 c-4 -31 -35 -36 -52 -8 -9 14 -7 21 7 32 27 19 49 8 45
-24z"/>
<path d="M672 563 c-21 -18 -25 -31 -23 -70 3 -69 194 -93 244 -32 29 36 19
81 -23 101 -49 25 -170 25 -198 1z"/>
<path d="M500 508 c0 -3 9 -30 19 -60 10 -29 27 -81 37 -116 9 -35 21 -65 26
-68 4 -3 8 18 8 45 0 28 2 51 5 51 3 0 25 -10 48 -22 58 -31 181 -31 250 0
l47 21 -6 -72 -6 -72 21 33 c12 19 31 64 42 100 12 37 25 78 30 91 8 19 -1 14
-41 -22 -82 -74 -185 -95 -299 -61 -56 16 -129 74 -162 129 -11 17 -19 27 -19
23z"/>
<path d="M1500 400 l0 -60 -41 0 c-33 0 -40 -3 -35 -15 3 -8 8 -21 12 -29 4
-10 -5 -12 -43 -9 -33 3 -84 -5 -164 -26 -63 -16 -156 -35 -205 -42 -49 -7
-91 -13 -93 -15 -2 -2 -7 -24 -12 -50 -22 -116 -141 -177 -246 -127 -49 23
-93 94 -93 150 0 38 -3 43 -27 49 -83 17 -170 49 -249 89 -84 42 -94 45 -171
45 l-83 0 10 26 c14 35 14 34 -25 34 l-35 0 0 -210 0 -210 755 0 755 0 0 230
c0 127 -2 230 -5 230 -3 0 -5 -27 -5 -60z"/>
</g>
</svg>
